HIERARCHY
ROOT Hips
{
	OFFSET -3.958830 18.904000 13.208200
	CHANNELS 6 Xposition Yposition Zposition Zrotation Yrotation Xrotation 
	JOINT LHipJoint
	{
		OFFSET 0.000000 0.000000 0.000000
		CHANNELS 3 Zrotation Yrotation Xrotation
		JOINT LeftUpLeg
		{
			OFFSET 1.800000 -1.400000 0.085000
			CHANNELS 3 Zrotation Yrotation Xrotation
			JOINT LeftLeg
			{
				OFFSET 2.215000 -6.000000 0.000000
				CHANNELS 3 Zrotation Yrotation Xrotation
				JOINT LeftFoot
				{
					OFFSET 2.500000 -6.900000 0.000000
					CHANNELS 3 Zrotation Yrotation Xrotation
					JOINT LeftToeBase
					{
						OFFSET 0.200000 -0.500000 1.950000
						CHANNELS 3 Zrotation Yrotation Xrotation
						End Site
						{
							OFFSET 0.000000 0.000000 0.000000
						}
					}
				}
			}
		}
	}
	JOINT RHipJoint
	{
		OFFSET 0.000000 0.000000 0.000000
		CHANNELS 3 Zrotation Yrotation Xrotation
		JOINT RightUpLeg
		{
			OFFSET -1.800000 -1.400000 0.085000
			CHANNELS 3 Zrotation Yrotation Xrotation
			JOINT RightLeg
			{
				OFFSET -2.215000 -6.000000 0.000000
				CHANNELS 3 Zrotation Yrotation Xrotation
				JOINT RightFoot
				{
					OFFSET -2.500000 -6.900000 0.000000
					CHANNELS 3 Zrotation Yrotation Xrotation
					JOINT RightToeBase
					{
						OFFSET -0.200000 -0.500000 1.950000
						CHANNELS 3 Zrotation Yrotation Xrotation
						End Site
						{
							OFFSET 0.000000 0.000000 0.000000
						}
					}
				}
			}
		}
	}
	JOINT LowerBack
	{
		OFFSET 0.000000 0.000000 0.000000
		CHANNELS 3 Zrotation Yrotation Xrotation
		JOINT Spine
		{
			OFFSET -0.087000 1.940000 -0.288900
			CHANNELS 3 Zrotation Yrotation Xrotation
			JOINT Spine1
			{
				OFFSET 0.000000 1.950000 0.060000
				CHANNELS 3 Zrotation Yrotation Xrotation
				JOINT Neck
				{
					OFFSET 0.000000 0.000000 0.000000
					CHANNELS 3 Zrotation Yrotation Xrotation
					JOINT Neck1
					{
						OFFSET 0.000000 1.600000 0.340000
						CHANNELS 3 Zrotation Yrotation Xrotation
						JOINT Head
						{
							OFFSET 0.000000 1.667000 -0.240000
							CHANNELS 3 Zrotation Yrotation Xrotation
							End Site
							{
								OFFSET 0.000000 0.000000 0.000000
							}
						}
					}
				}
				JOINT LeftShoulder
				{
					OFFSET 0.000000 0.000000 0.000000
					CHANNELS 3 Zrotation Yrotation Xrotation
					JOINT LeftArm
					{
						OFFSET 2.700000 1.550000 -0.730000
						CHANNELS 3 Zrotation Yrotation Xrotation
						JOINT LeftForeArm
						{
							OFFSET 5.450000 0.000000 0.000000
							CHANNELS 3 Zrotation Yrotation Xrotation
							JOINT LeftHand
							{
								OFFSET 3.450000 0.000000 0.000000
								CHANNELS 3 Zrotation Yrotation Xrotation
								JOINT LeftHandIndex1
								{
									OFFSET 0.750000 0.000000 0.000000
									CHANNELS 3 Zrotation Yrotation Xrotation
									End Site
									{
										OFFSET 0.000000 0.000000 0.000000
									}
								}
							}
						}
					}
				}
				JOINT RightShoulder
				{
					OFFSET 0.000000 0.000000 0.000000
					CHANNELS 3 Zrotation Yrotation Xrotation
					JOINT RightArm
					{
						OFFSET -2.700000 1.550000 -0.730000
						CHANNELS 3 Zrotation Yrotation Xrotation
						JOINT RightForeArm
						{
							OFFSET -5.450000 0.000000 0.000000
							CHANNELS 3 Zrotation Yrotation Xrotation
							JOINT RightHand
							{
								OFFSET -3.450000 0.000000 0.000000
								CHANNELS 3 Zrotation Yrotation Xrotation
								JOINT RightHandIndex1
								{
									OFFSET -0.750000 0.000000 0.000000
									CHANNELS 3 Zrotation Yrotation Xrotation
									End Site
									{
										OFFSET 0.000000 0.000000 0.000000
									}
								}
							}
						}
					}
				}
			}
		}
	}
}
MOTION
Frames: 8
Frame Time: 0.016667
-0.126010 17.592490 -2.378040 -5.548937 18.120094 -11.043010 -15.488807 14.275287 2.466109 2.731077 -0.881078 1.157822 5.570052 5.804353 38.003718 0.354623 7.109361 2.136812 0.368940 0.407840 0.153440 17.919914 -10.715333 2.853856 -1.878505 3.641597 -19.840284 6.862890 -8.328555 36.091920 -0.384704 -5.483541 2.359276 0.431770 0.207170 0.080530 -3.036410 -2.956020 -7.198659 6.156180 -1.845463 19.180285 3.647320 -1.046070 19.384937 1.617706 0.283686 -6.165337 -2.710596 -2.315504 39.632702 -1.132930 -3.353860 -6.696640 -17.713853 -10.710783 2.362115 -23.164294 -30.723497 13.959535 159.176202 -55.914252 -142.946046 -3.866845 3.401930 -0.047720 0.208080 -0.114630 0.135790 15.403397 11.559693 2.721148 7.897413 21.874686 1.198041 -147.139636 41.450990 -111.707543 2.028201 -1.994741 -0.083200 0.224360 -0.043530 -0.016520 
-0.131080 17.575060 -2.425930 -5.956695 18.681265 -10.702847 -15.468443 14.264748 2.410906 3.518987 -0.518675 2.056551 4.875270 5.846232 34.837386 0.287106 6.739306 2.276822 0.363790 0.404670 0.141350 17.943186 -10.687474 2.912428 -2.083062 3.822063 -20.970264 7.441097 -8.650209 36.470140 -0.390735 -5.568527 2.326101 0.430190 0.218880 0.081150 -3.117974 -2.919047 -7.207601 6.770544 -2.393587 18.817241 3.029458 -1.508706 19.511098 1.778695 0.071145 -6.377827 -3.058372 -2.067912 39.519986 -1.104840 -3.443970 -6.264910 -16.510423 -11.480567 2.490134 -22.349872 -31.397706 14.330977 161.281456 -56.386899 -146.570788 -3.857740 3.426597 -0.062800 0.215520 -0.124180 0.142020 13.901830 12.158721 2.765362 5.207013 22.400381 1.682073 -148.929736 42.186324 -115.045503 2.046088 -2.002502 -0.080650 0.222460 -0.043510 -0.007360 
-0.137280 17.556860 -2.505450 -6.426817 19.516290 -10.137768 -15.438288 14.216678 2.373743 4.255561 -0.057708 3.262487 4.039389 5.780904 30.389178 0.186963 6.245383 2.457580 0.372400 0.413240 0.145580 17.981118 -10.627095 2.997617 -2.807423 4.040504 -22.869388 8.542477 -9.323214 37.189312 -0.421438 -5.741479 2.251935 0.436870 0.213910 0.076510 -3.243083 -2.867899 -7.255121 7.764709 -3.264788 18.498735 1.779738 -2.138089 19.452611 2.140494 -0.319259 -6.685170 -3.781424 -1.606312 39.698692 -1.048570 -3.533130 -6.453260 -14.254652 -12.838663 2.563693 -21.106399 -32.539378 14.632598 165.674692 -57.767636 -154.641303 -3.815100 3.451454 -0.056360 0.207090 -0.120410 0.144150 10.927476 13.266191 2.762620 0.629553 23.209851 2.173938 -152.575300 43.881360 -122.657654 2.070214 -2.003962 -0.081810 0.227990 -0.046570 -0.007610 
-0.144300 17.550140 -2.603530 -6.757162 20.324735 -9.459687 -15.415800 14.139743 2.373297 4.634878 0.312693 4.091092 3.365005 5.603930 26.150458 0.102662 5.785404 2.617464 0.396410 0.438380 0.167160 18.012765 -10.557518 3.083580 -3.919037 4.141108 -24.946643 9.768152 -10.035360 37.644648 -0.458618 -5.889229 2.177647 0.446720 0.188970 0.073570 -3.344550 -2.806791 -7.331234 8.561935 -4.020817 18.276889 0.490058 -2.548275 19.115844 2.633142 -0.298666 -6.931803 -3.900232 -1.528460 40.610131 -0.749540 -3.836520 -7.091710 -11.716657 -14.774927 2.384044 -20.613169 -34.639332 15.172211 172.507612 -60.119904 -166.974589 -3.727849 3.468372 -0.036300 0.182040 -0.097350 0.143050 7.433661 14.678582 2.821102 -3.534619 24.232409 2.558343 -156.725885 45.982438 -131.846167 2.096451 -2.000104 -0.073410 0.231440 -0.057470 -0.010460 
-0.147020 17.560130 -2.709040 -6.946924 21.112316 -8.687822 -15.378076 14.043759 2.400053 4.615311 0.567843 4.288999 2.659287 5.470323 22.831186 0.039883 5.425521 2.737051 0.414340 0.457210 0.187090 18.055517 -10.515323 3.151871 -5.337926 4.011999 -26.895754 10.840948 -10.586010 37.534416 -0.478333 -5.945207 2.135255 0.448430 0.160570 0.066850 -3.488793 -2.710497 -7.422467 9.508072 -4.814469 18.150223 -1.295252 -2.973099 18.376365 3.075737 -0.430412 -7.155168 -4.388765 -1.120578 41.999730 -0.397040 -3.939290 -7.754440 -9.573931 -17.086393 2.142667 -20.747421 -36.668425 15.007311 -179.625254 -63.725289 179.572825 -3.635538 3.428538 -0.006130 0.150690 -0.068660 0.139050 4.357200 16.520828 2.949601 -6.250675 25.373118 2.665274 -160.125448 48.522346 -140.267528 2.112074 -1.987549 -0.067131 0.237920 -0.065260 -0.015240 
-0.148280 17.587910 -2.815020 -7.153015 21.740794 -7.795666 -15.344572 13.984288 2.407790 4.627892 0.625710 3.294152 1.764908 5.510712 21.120137 0.001400 5.168001 2.807956 0.424950 0.464900 0.205560 18.082463 -10.487928 3.236198 -6.745704 3.832920 -28.705427 11.659520 -10.964842 37.209195 -0.486783 -5.946447 2.114659 0.435180 0.121400 0.061230 -3.602632 -2.645407 -7.531566 10.135150 -5.486623 17.996959 -2.749270 -3.319683 17.001165 3.607601 -0.323240 -7.478454 -4.534367 -0.532772 44.819187 -0.115380 -3.819680 -7.659490 -7.819558 -19.674175 2.119727 -22.616137 -37.840368 14.298545 -162.998481 -67.548452 154.573924 -3.523556 3.282969 0.024730 0.115360 -0.035550 0.132920 1.539468 18.678254 2.844147 -6.873485 26.832384 2.824864 -165.639968 52.999666 -153.925536 2.108088 -2.001774 -0.054000 0.227430 -0.076650 -0.021320 
-0.153460 17.627200 -2.919140 -7.029226 21.958207 -6.789518 -15.324020 13.965124 2.432104 4.400752 0.568776 1.574151 0.660408 5.705944 20.718146 -0.032806 5.004279 2.838628 0.438160 0.479410 0.227310 18.085711 -10.512574 3.267881 -7.880654 3.508230 -29.903550 11.584396 -10.720386 36.170609 -0.453227 -5.725768 2.172767 0.427360 0.084970 0.054130 -3.652936 -2.599774 -7.611144 10.105985 -5.789631 17.987193 -3.971454 -3.400706 15.454788 4.160863 -0.054134 -7.749445 -4.247052 0.092560 47.598902 0.252280 -3.447260 -7.752920 -6.539551 -22.065858 2.188880 -24.742658 -38.839606 13.415726 -141.127723 -70.393252 125.424158 -3.508954 2.918883 0.057530 0.082070 -0.000280 0.126850 -0.838958 20.735373 2.435288 -6.370417 28.011424 2.674750 -173.522661 57.879532 -170.147569 2.071069 -1.991785 -0.043890 0.224620 -0.087720 -0.028710 
-0.150520 17.664010 -3.021160 -7.012137 22.031225 -5.906017 -15.285995 13.913628 2.461923 4.195195 0.401398 -0.243844 -0.593557 5.960413 20.649494 -0.063474 4.898084 2.853657 0.432930 0.468180 0.236430 18.104428 -10.598179 3.258743 -8.746133 3.107663 -30.643210 11.030333 -10.224616 34.835452 -0.395924 -5.431662 2.261461 0.409840 0.063700 0.052320 -3.748921 -2.418720 -7.657769 10.544527 -5.852889 17.901747 -5.337768 -3.238927 14.063366 4.960064 0.383001 -8.126764 -3.437214 0.268886 50.125069 0.341220 -3.200550 -7.256810 -6.109440 -24.255531 2.723917 -26.713493 -40.401614 13.727064 -115.823591 -73.109571 95.280113 -3.801629 2.188864 0.081480 0.064780 0.019510 0.117740 -2.794235 22.553507 1.741285 -5.919568 28.578231 2.082648 175.127234 62.436007 170.991874 2.022701 -1.914799 -0.041210 0.217390 -0.087370 -0.037050 
